
<svg width="60" height="60" viewBox="0 0 60 60" xmlns="http://www.w3.org/2000/svg">
  <path d="M54.627 0l.83.828-1.415 1.415L51.8 0h2.827zM5.373 0l-.83.828L5.96 2.243 8.2 0H5.374zM48.97 0l3.657 3.657-1.414 1.414L46.143 0h2.828zM11.03 0L7.372 3.657l1.415 1.414L13.857 0H11.03zm32.284 0L39.9 3.414 42.03 0h1.284zM18.686 0l3.414 3.414L19.97 0h-1.284zM36.343 0l-1.414 1.414L33.515 0h2.828zM23.657 0l1.414 1.414L26.485 0h-2.828zM30 0l-1.414 1.414L30 2.828l1.414-1.414L30 0zm-2.828 3.243L20 10.414 13.242 3.657 16.97 0h2.828l-1.414 1.414 1.414 1.414-1.414 1.414-1.414-1.414-1.414 1.414L15.143 0H12.57l3.657 3.657L0 20.485l5.657 5.657L10 22.627l5.657 5.657L20 24.97 15.142 20.1l-3.656 3.657-1.414-1.415 5.657-5.656-5.657-5.657 5.657-5.657 1.415 1.414 1.414-1.414-1.414-1.414L13.3 3.658 16.97 0l3.657 3.657 1.414-1.414L18.686 0h2.828l3.414 3.414 1.414-1.414-1.414-1.414L22.143 0h2.828l1.414 1.414 1.414-1.414-1.414-1.414L23.657 0h2.828l1.414 1.414L30 0l1.414 1.414-1.414 1.414 1.414 1.414-1.414 1.414-1.414-1.414-1.414 1.414-1.414-1.414-1.414 1.414L23.657 0l-1.414 1.414 1.414 1.414-1.414 1.414-1.414-1.414-1.414 1.414L17.9 1.828 16.485 0h-2.828L10 3.657 7.172 0H4.343L0 4.343l5.657 5.657L10 6.585 14.343 10.9 10 15.314 0 5.657l1.414-1.414L0 2.828l1.414-1.414L0 0l4.343 4.343L8.686 0H7.4z" fill="#1d5c3f" fill-opacity="0.1" fill-rule="evenodd"/>
</svg>
